<svg id="Layer_1" data-name="Layer 1" xmlns="http://www.w3.org/2000/svg" viewBox="0 0 131.86 147.35"><defs><style>.cls-1{fill:#0e151e;}.cls-2{fill:#3175b0;}.cls-3{fill:#243c79;}</style></defs><title>Untitled-1</title><path class="cls-1" d="M213.48,201.62l15.64-6.32v1.56c0,7.58,0,15.17,0,22.75a1.9,1.9,0,0,1-1.45,2.1q-32.22,13-64.4,26a3.17,3.17,0,0,0-1.83,1.63,16.61,16.61,0,0,1-1.5,2.54c-.94,1.32-2.37,1.17-3-.35-.4-1-.88-.93-1.72-.58q-17.23,7-34.49,14a1.51,1.51,0,0,1-.36.06c-.28-.26-.14-.58-.14-.86,0-7.89,0-15.77,0-23.65a1.49,1.49,0,0,1,1.15-1.64c6.6-2.62,13.18-5.31,19.76-8,.35-.14.69-.32,1.16-.54a16.94,16.94,0,0,0-1.5-1.21,8.23,8.23,0,0,1-3.63-5.55,2,2,0,0,0-.76-1.25,39.57,39.57,0,0,1-10.72-13.22,4.72,4.72,0,0,0-2.77-2.46,20,20,0,0,0-18.56,2.11,8.88,8.88,0,0,1-.75.5c-1.36.77-2.41.18-2.41-1.39a25.9,25.9,0,0,1,2-9.9c3-7.48,8.4-13,14.7-17.74a58,58,0,0,1,8.75-5.42,1.86,1.86,0,0,0,.88-.71c5.59-10,13.26-18.28,21.18-26.39a116.45,116.45,0,0,1,43.21-28c1.85-.68,3.72-1.29,5.6-1.87a1.66,1.66,0,0,1,2.41,1.5,84.74,84.74,0,0,1,.23,27.11c-.57,3.67-1.83,7.08-5.06,9.36a7.34,7.34,0,0,1-4,1.46,1.71,1.71,0,0,0-1.17.43,18.68,18.68,0,0,0-3.54,4.09c-.14.24-.5.5-.29.79s.62.13.95,0a10.18,10.18,0,0,1,5.94-.19c3.69.84,5.79,7.08,3.48,10-3.08,3.85-5.95,7.82-11,9.93,1.18,0,1.22.38.93,1.13-1.08,2.75-2.07,5.54-3.11,8.3a1.3,1.3,0,0,0,.18,1.5,5.12,5.12,0,0,1,1.12,1.71c.48,1.47,1.32,1.16,2.53,1,2.92-.44,4.31-2.06,5.51-4.73,2.56-5.72,6.84-10.28,11.28-14.62a45,45,0,0,1,26-12.52c.59-.08,1.2-.05,1.8-.08a1.24,1.24,0,0,1,1.26.72,1.32,1.32,0,0,1-.19,1.56,12.64,12.64,0,0,1-1.13,1.06c-5.75,5.3-11,11-14.89,17.88-2.47,4.32-4.06,8.88-3.54,14C213.23,199.94,213.36,200.7,213.48,201.62Zm-15.79,5h0c.55.41,1,1,1.88.63,1.41-.62,2.85-1.16,4.27-1.75.36-.15.68-.32.62-.84-.76-6.72,1.86-12.46,5.12-18.06,1.53-2.61,3.25-5.08,4.94-7.57l0,0c.31,0,.36-.24.37-.49,2.34-3,5.06-5.57,7.6-8.35a35,35,0,0,0-8,4c-9.68,6-17.08,14-20.74,25-.25.76-.65.94-1.17.56a2,2,0,0,0-2.27,0,28.67,28.67,0,0,1-3.1,1.25,1.39,1.39,0,0,0-1.09,1.61,13.31,13.31,0,0,1-.44,4.21c-.23.84-.46,1.16-1.34.51-1-.75-2.25-1.25-3.32-2-1.58-1-3.26-.5-4.89-.4-2.47.14-1.87,2.44-2.55,3.85a2.6,2.6,0,0,0-.09.76c-.13,2.34.68,3.54,2.85,4.22a6.37,6.37,0,0,0,3.3,0c4.34-.93,7.91-3.39,11.49-5.81,1.29-.87,2.38-1.78,2.33-3.54a4.16,4.16,0,0,1,.44-1.33c.3-.19.49,0,.63.2a17.58,17.58,0,0,0,2.78,3.12C197.46,206.55,197.53,206.63,197.69,206.6Zm-72.42-20.67,1.34-5.16a18.92,18.92,0,0,0-4.21,1.9c-6.81,4-11.45,9.91-15,16.82-.24.48-.64.92-.47,1.53-.1.14-.29.28-.27.41,0,.38-.7.42-.39.83s.63,0,.95,0a2.15,2.15,0,0,0,.48-.18,58.53,58.53,0,0,1,11.19-2.86,5.8,5.8,0,0,0,5.13-4.86C124.51,191.54,124.86,188.73,125.27,185.93Zm31.87,38.37a4.21,4.21,0,0,0,1.11-.28c1.09-.25,1.36-.83,1.15-1.93a38.61,38.61,0,0,0-5.87-14.94c-.13-.2-.39-.37-.27-.56,5.71-.71,10.63-2.63,13.93-7.57,1.26-1.9,2.58-3.75,3.76-5.69a29.19,29.19,0,0,0,3.26-6.69c.61-2,0-2.81-2.13-2.72-.89,0-1.67.64-2.72.45a6.93,6.93,0,0,1,2.2-2.55,26.94,26.94,0,0,1,8.21-3.85c2.4-.76,4.93-1.11,7.19-2.3a9.41,9.41,0,0,0,3.59-2.75c-2.52.87-4.84,1-7.06,1.71a6.45,6.45,0,0,0-.76,0,61.9,61.9,0,0,1-16.18-1.14c-1.08-.24-1.28-.67-1.14-1.63a26.3,26.3,0,0,1,3.56-9.74,52.58,52.58,0,0,1,7.57-9.72,49.26,49.26,0,0,1,12.66-9.77,5.26,5.26,0,0,1,6,.69c.25.21.44.66.82.5s.29-.58.35-.92a58.84,58.84,0,0,0,.53-10.94,46.59,46.59,0,0,0-.38-5.14c-.08-.71-.4-.8-.91-.41a18.2,18.2,0,0,0-2.91,2.71,59,59,0,0,0-4,5.75,22.18,22.18,0,0,1,3.7-9.64,3.18,3.18,0,0,0,.84-1.44,84.07,84.07,0,0,0-13,5.61,117.05,117.05,0,0,0-15.91,10.09,122.89,122.89,0,0,0-13.62,12c-2.82,2.82-5.35,5.89-7.91,8.93a73.79,73.79,0,0,0-7.21,10.12,66.39,66.39,0,0,0-4.72,9.05,37.65,37.65,0,0,0-3,12.55,27.62,27.62,0,0,0,2.47,13.28,16,16,0,0,0,5,5.79l0,.11c0,.28.23.34.45.38.84.64,1.59,1.45,2.75,1.5.46.74.84.61,1.37,0a11.51,11.51,0,0,1,5.94-3.63c.06.48-.27.79-.49,1.15a21.35,21.35,0,0,0-2.7,5.81c-.65,2.5-.75,4.93.89,7.15a31,31,0,0,0,4.11,4.23.58.58,0,0,0,.69.13C151.29,226.73,154.32,225.76,157.14,224.3Zm17.6-66h.72c.66,0,1.32.83,1.9.26a5,5,0,0,0,.85-1.84c.26-.64.66-1.28,1.35-1.2,1.45.18,2.09-.75,2.74-1.72.55-.82,1.11-1.64,1.61-2.49.36-.63.77-1,1.55-.78a1.25,1.25,0,0,0,1.53-.84c.24-.51.51-1,.77-1.49s.82-.53,1.34-.56.52.42.58.78c.12.75.53.82,1.21.65,1.76-.43,1.77-.4,2,1.44a1.62,1.62,0,0,0,.18.42,7.16,7.16,0,0,0,1.17-3.52,2.66,2.66,0,0,0-3.44-2.72,8.76,8.76,0,0,0-2.65,1.27C183.1,149.4,179,153.79,174.74,158.35Zm15.45,7.76c.57,2.23-.28,3.12-2.46,2.91-1.51-.15-3.1-.57-4.47.62a1.66,1.66,0,0,1-1.84.22,3.83,3.83,0,0,0-4.26.34,9.94,9.94,0,0,1-1.9.77,14.45,14.45,0,0,0-2.84,1,21.23,21.23,0,0,0,5.76.32,53.29,53.29,0,0,0,5.64-.55,26.77,26.77,0,0,0,8.14-2.19c1.43-.74,1.44-2.13,0-3A2.69,2.69,0,0,0,190.19,166.11Z" transform="translate(-101.23 -117.73)"/><path class="cls-2" d="M138.58,213.14c-1.16,0-1.91-.86-2.75-1.5,0-.26-.22-.35-.45-.38l0-.11a1.63,1.63,0,0,0-.31-1.08,23.81,23.81,0,0,1-2.53-10c-.2-7.12,2-13.62,5.19-19.86A87.67,87.67,0,0,1,147,165.69a129,129,0,0,1,13-14.44c1.51-1.42,3-2.74,3.31-5a5.88,5.88,0,0,1,1.93-3.15c3.62-3.5,7.85-5.12,12.9-3.85a.87.87,0,0,0,1.15-.44,53.81,53.81,0,0,1,5.78-7.56,46.77,46.77,0,0,1,6.59-6.15c.21-.15.61-.86.72.09a22.18,22.18,0,0,0-3.7,9.64,59,59,0,0,1,4-5.75,18.2,18.2,0,0,1,2.91-2.71c.51-.39.83-.3.91.41a46.59,46.59,0,0,1,.38,5.14,58.84,58.84,0,0,1-.53,10.94c-.06.34,0,.78-.35.92s-.57-.29-.82-.5a5.26,5.26,0,0,0-6-.69,49.26,49.26,0,0,0-12.66,9.77,52.58,52.58,0,0,0-7.57,9.72,26.3,26.3,0,0,0-3.56,9.74c-.14,1,.06,1.39,1.14,1.63a61.9,61.9,0,0,0,16.18,1.14,6.45,6.45,0,0,1,.76,0c-1.47,1-3.27,1.12-4.92,1.5a42.57,42.57,0,0,1-13.64,1.13c-.51,0-1.16-.18-1.52.06-2.08,1.38-4.48,2.3-6.29,4.08-1.35,1.34-2,1.29-2.76-.45a28.73,28.73,0,0,1-1.72-6.72A54.73,54.73,0,0,1,152,167l-.7.89c-.13.15-.32.29-.37.48a35.11,35.11,0,0,0-1.39,7.41c-.3,3.22.22,6.41.33,9.61a5.31,5.31,0,0,1-2.13-2.93,28.46,28.46,0,0,1-1.93-7.57l-.36.57c-.74-.05-.66.6-.74,1a20.19,20.19,0,0,0-.41,6.67,28.31,28.31,0,0,1,.59,4.2c-1.19-.71-1.69-1.94-2.34-3.07-.36-.63-.44-1.41-1.07-1.87-.49-.1-.42.28-.47.55a16.46,16.46,0,0,0,0,6c.5,3,.86,3.39,3.87,3.51a1.09,1.09,0,0,1,.25,0c-1,1.35-1.89,2.73-2.92,4a19.79,19.79,0,0,0-3.16,6.7A24.34,24.34,0,0,0,138.58,213.14Zm32.33-68.49a2,2,0,0,0,1.92-1,1.16,1.16,0,0,0,.94-.94c.45-1.86,1.95-2.28,3.48-2.71.26-.08.61-.05.74-.47-4,.2-7.77.94-10.84,3.7a3.78,3.78,0,0,0-1.11,4.3c.82-2.25,2.28-3,4.3-2.63C170.52,144.89,170.72,144.73,170.91,144.65Z" transform="translate(-101.23 -117.73)"/><path class="cls-3" d="M192.39,125.19c-.11-1-.51-.24-.72-.09a46.77,46.77,0,0,0-6.59,6.15,53.81,53.81,0,0,0-5.78,7.56.87.87,0,0,1-1.15.44c-5.05-1.27-9.28.35-12.9,3.85a5.88,5.88,0,0,0-1.93,3.15c-.32,2.26-1.8,3.58-3.31,5a129,129,0,0,0-13,14.44,87.67,87.67,0,0,0-9.33,14.49c-3.16,6.24-5.39,12.74-5.19,19.86a23.81,23.81,0,0,0,2.53,10,1.63,1.63,0,0,1,.31,1.08,16,16,0,0,1-5-5.79,27.62,27.62,0,0,1-2.47-13.28,37.65,37.65,0,0,1,3-12.55,66.39,66.39,0,0,1,4.72-9.05,73.79,73.79,0,0,1,7.21-10.12c2.56-3,5.09-6.11,7.91-8.93a122.89,122.89,0,0,1,13.62-12,117.05,117.05,0,0,1,15.91-10.09,84.07,84.07,0,0,1,13-5.61A3.18,3.18,0,0,1,192.39,125.19Z" transform="translate(-101.23 -117.73)"/><path class="cls-2" d="M197.43,206.4a17.58,17.58,0,0,1-2.78-3.12c-.14-.22-.33-.39-.63-.2-.22-.38-.41-.11-.59,0a40.32,40.32,0,0,1-8.79,5.36,15,15,0,0,1-11,1,2.6,2.6,0,0,1,.09-.76c.68-1.41.08-3.71,2.55-3.85,1.63-.1,3.31-.64,4.89.4,1.07.71,2.29,1.21,3.32,2,.88.65,1.11.33,1.34-.51a13.31,13.31,0,0,0,.44-4.21,1.39,1.39,0,0,1,1.09-1.61,28.67,28.67,0,0,0,3.1-1.25,2,2,0,0,1,2.27,0c.52.38.92.2,1.17-.56,3.66-11,11.06-19,20.74-25a35,35,0,0,1,8-4c-2.54,2.78-5.26,5.39-7.6,8.35-.25.06-.33.26-.37.49l0,0c-.57-.08-.84.38-1.18.67a58.39,58.39,0,0,0-8.23,8.48c-4,5.17-7.07,10.74-7,17.55,0,.34.19.83-.43.89h0Z" transform="translate(-101.23 -117.73)"/><path class="cls-2" d="M145.89,209.52a3.29,3.29,0,0,1,3.15,1,34.2,34.2,0,0,1,8.1,13.79c-2.82,1.46-5.85,2.43-8.75,3.69a.58.58,0,0,1-.69-.13,31,31,0,0,1-4.11-4.23c-1.64-2.22-1.54-4.65-.89-7.15a21.35,21.35,0,0,1,2.7-5.81C145.62,210.31,146,210,145.89,209.52Z" transform="translate(-101.23 -117.73)"/><path class="cls-2" d="M125.27,185.93c-.41,2.8-.76,5.61-1.23,8.4a5.8,5.8,0,0,1-5.13,4.86,58.53,58.53,0,0,0-11.19,2.86,2.15,2.15,0,0,1-.48.18c-.32,0-.68.38-.95,0s.42-.45.39-.83c0-.13.17-.27.27-.41a23,23,0,0,0,2.58-2.91,52.5,52.5,0,0,1,10.09-9.21A22.11,22.11,0,0,1,125.27,185.93Z" transform="translate(-101.23 -117.73)"/><path class="cls-3" d="M197.72,206.61c.62-.06.43-.55.43-.89-.08-6.81,2.94-12.38,7-17.55a58.39,58.39,0,0,1,8.23-8.48c.34-.29.61-.75,1.18-.67-1.69,2.49-3.41,5-4.94,7.57-3.26,5.6-5.88,11.34-5.12,18.06.06.52-.26.69-.62.84-1.42.59-2.86,1.13-4.27,1.75C198.73,207.62,198.27,207,197.72,206.61Z" transform="translate(-101.23 -117.73)"/><path class="cls-3" d="M214.6,179c0-.23.12-.43.37-.49C215,178.74,214.91,179,214.6,179Z" transform="translate(-101.23 -117.73)"/><path class="cls-3" d="M135.38,211.26c.23,0,.41.12.45.38C135.61,211.6,135.4,211.54,135.38,211.26Z" transform="translate(-101.23 -117.73)"/><path class="cls-3" d="M197.43,206.4l.26.2C197.53,206.63,197.46,206.55,197.43,206.4Z" transform="translate(-101.23 -117.73)"/><path class="cls-1" d="M151.33,167.89a16.58,16.58,0,0,1,0,3.59,44.13,44.13,0,0,0,.84,10.63c.43,1.93,1.43,3.26,3.57,3.45a4.84,4.84,0,0,1-5.82-.17c-.11-3.2-.63-6.39-.33-9.61a35.11,35.11,0,0,1,1.39-7.41C151,168.18,151.2,168,151.33,167.89Z" transform="translate(-101.23 -117.73)"/><path class="cls-1" d="M145.48,175.46a27.58,27.58,0,0,0,.75,7.89c.64,2.48,1.78,4.53,4.56,5.23a8.06,8.06,0,0,1-5.87-1.28,28.31,28.31,0,0,0-.59-4.2,20.19,20.19,0,0,1,.41-6.67C144.82,176.06,144.74,175.41,145.48,175.46Z" transform="translate(-101.23 -117.73)"/><path class="cls-1" d="M170.91,144.65c-.19.08-.39.24-.57.21-2-.32-3.48.38-4.3,2.63a3.78,3.78,0,0,1,1.11-4.3c3.07-2.76,6.84-3.5,10.84-3.7-.13.42-.48.39-.74.47-1.53.43-3,.85-3.48,2.71a1.16,1.16,0,0,1-.94.94c0-2.05,0-2.05-1.77-1.06l-.34.19c-1.54.87-1.54.95-.06,1.88A.69.69,0,0,0,170.91,144.65Z" transform="translate(-101.23 -117.73)"/><path class="cls-1" d="M141.51,182.36a32.81,32.81,0,0,0,1.08,6.13,2.88,2.88,0,0,0,2.88,2.4l3.12.31c-1.08.88-2.41.68-3.42,1.28a1.09,1.09,0,0,0-.25,0c-3-.12-3.37-.48-3.87-3.51a16.46,16.46,0,0,1,0-6C141.09,182.64,141,182.26,141.51,182.36Z" transform="translate(-101.23 -117.73)"/><path class="cls-1" d="M165.3,188.52a64.69,64.69,0,0,0-10.68,12.8c.19-2.61,4.76-11.27,7.31-14.06C162.45,188.78,163.7,188.64,165.3,188.52Z" transform="translate(-101.23 -117.73)"/></svg>